Coordinates
version=1
nRows=5
nColumns=46
inDegrees=yes

Units are S.I. units (second, meters, Newtons, ...)
Angles are in degrees.

endheader
time	pelvis_tilt	pelvis_list	pelvis_rotation	pelvis_tx	pelvis_ty	pelvis_tz	bb_angle	bb_tx	bb_ty	bb_tz	hip_flexion_r	hip_adduction_r	hip_rotation_r	knee_angle_r	knee_angle_r_beta	ankle_angle_r	subtalar_angle_r	mtp_angle_r	crank_angle_r	hip_flexion_l	hip_adduction_l	hip_rotation_l	knee_angle_l	knee_angle_l_beta	ankle_angle_l	subtalar_angle_l	mtp_angle_l	crank_angle_l	lumbar_extension	lumbar_bending	lumbar_rotation	arm_flex_r	arm_add_r	arm_rot_r	elbow_flex_r	pro_sup_r	wrist_flex_r	wrist_dev_r	arm_flex_l	arm_add_l	arm_rot_l	elbow_flex_l	pro_sup_l	wrist_flex_l	wrist_dev_l
      5.00000000	    -18.41343802	     -7.75573822	     -7.97639620	      0.20666058	      1.05027003	     -0.25836879	      0.00000000	      0.50000000	      0.00000000	      0.25000000	     86.35326624	      5.36387717	      2.76017256	    105.49744099	      1.84127770	     22.69962692	      4.11034438	      0.00000000	      0.00000000	     40.86586117	    -16.04370570	     -4.64700975	     47.78990974	      0.83409127	     -5.72131815	     -4.78560848	      0.00000000	      0.00000000	    -64.76503223	     10.37596180	      7.18254718	     89.68991969	     -7.51705665	     32.46305744	     65.65459894	     29.36543706	      0.00000000	      0.00000000	     71.15013254	    -36.66953393	     18.58379657	     77.07231933	     45.11913189	      0.00000000	      0.00000000
      5.00500000	    -18.21777584	     -7.72034831	     -7.57598493	      0.20652628	      1.05051382	     -0.25695413	      0.00000000	      0.50000000	      0.00000000	      0.25000000	     85.45186448	      5.25091559	      2.53675381	    103.56972243	      1.80763266	     23.84974778	      3.43668124	      0.00000000	      0.00000000	     41.52417243	    -15.89737506	     -3.97687217	     50.31425937	      0.87814949	     -5.59872131	     -5.81839253	      0.00000000	      0.00000000	    -64.99845004	     10.22975030	      6.92296286	     89.68856103	     -7.69899766	     32.38118348	     65.71565943	     29.36829642	      0.00000000	      0.00000000	     71.72203534	    -36.56443537	     18.40161961	     77.28204039	     45.15396499	      0.00000000	      0.00000000
      5.01000000	    -17.95559451	     -7.70964653	     -7.12583897	      0.20654834	      1.05086109	     -0.25553624	      0.00000000	      0.50000000	      0.00000000	      0.25000000	     84.37081505	      5.08613006	      2.26403335	    101.49546185	      1.77142999	     24.65730932	      2.69153349	      0.00000000	      0.00000000	     42.11517996	    -15.68463958	     -3.09996320	     52.78409035	      0.92125617	     -5.62049824	     -6.62243703	      0.00000000	      0.00000000	    -65.30686986	     10.14965241	      6.66528844	     89.68117547	     -7.94022461	     32.25803537	     65.87186946	     29.39010828	      0.00000000	      0.00000000	     71.99814863	    -36.24842021	     18.42512328	     77.58217392	     45.23386314	      0.00000000	      0.00000000
      5.01500000	    -17.61405910	     -7.56287627	     -6.62680268	      0.20665720	      1.05122999	     -0.25410298	      0.00000000	      0.50000000	      0.00000000	      0.25000000	     83.13662481	      4.86617238	      2.18061949	     99.32726611	      1.73358783	     25.36788304	      2.07771373	      0.00000000	      0.00000000	     42.61082148	    -15.33833020	     -2.36574974	     55.22198563	      0.96380547	     -5.46628430	     -7.25101256	      0.00000000	      0.00000000	    -65.56294177	      9.92121628	      6.28274422	     89.67148412	     -8.28361899	     32.11019599	     66.08738160	     29.42974216	      0.00000000	      0.00000000	     72.37942206	    -35.99449288	     18.33836259	     77.83738768	     45.29210025	      0.00000000	      0.00000000
      5.02000000	    -17.20012767	     -7.14543529	     -6.20241222	      0.20680590	      1.05148179	     -0.25238037	      0.00000000	      0.50000000	      0.00000000	      0.25000000	     81.84386835	      4.66870194	      2.34183312	     97.19343813	      1.69634551	     25.98959300	      1.58396356	      0.00000000	      0.00000000	     43.02134310	    -14.80063623	     -1.82428437	     57.76777851	      1.00823794	     -5.37631690	     -7.65396476	      0.00000000	      0.00000000	    -65.86038719	      9.49895548	      5.61959223	     89.65661563	     -8.55300525	     32.00361083	     66.16143224	     29.44497384	      0.00000000	      0.00000000	     72.56890136	    -35.73058372	     18.31175901	     77.96267006	     45.31994061	      0.00000000	      0.00000000
